<?xml version="1.0" standalone="no"?>
<!DOCTYPE svg PUBLIC "-//W3C//DTD SVG 20010904//EN"
 "http://www.w3.org/TR/2001/REC-SVG-20010904/DTD/svg10.dtd">
<svg version="1.0" xmlns="http://www.w3.org/2000/svg"
 width="278.000000pt" height="278.000000pt" viewBox="0 0 278.000000 278.000000"
 preserveAspectRatio="xMidYMid meet">
<metadata>
Created by potrace 1.14, written by Peter Selinger 2001-2017
</metadata>
<g transform="translate(0.000000,278.000000) scale(0.100000,-0.100000)"
fill="#000000" stroke="none">
<path d="M1350 2351 c-66 -53 -210 -142 -303 -186 -160 -75 -345 -126 -509
-141 l-78 -7 0 -226 c0 -410 54 -730 156 -933 100 -201 288 -393 509 -523 96
-57 245 -125 273 -125 32 0 299 139 386 201 384 274 522 607 543 1304 3 116 3
231 -1 256 l-7 45 -105 13 c-269 31 -528 135 -745 298 -39 29 -73 53 -77 53
-4 0 -23 -13 -42 -29z m20 -376 l0 -325 -115 0 -115 0 0 116 c0 107 -1 116
-17 109 -79 -33 -219 -76 -295 -91 l-91 -19 6 -170 c15 -426 93 -653 289 -847
111 -109 108 -110 108 27 l0 115 115 0 115 0 0 -315 0 -315 -27 11 c-136 51
-330 173 -445 279 -281 259 -389 586 -392 1187 0 122 1 224 4 227 3 3 48 10
100 16 252 30 500 126 690 270 36 27 66 49 68 49 1 1 2 -145 2 -324z m179 228
c29 -19 86 -53 126 -74 l73 -40 22 -72 c57 -191 73 -238 80 -230 3 4 26 59 50
121 24 61 44 112 45 112 1 0 44 -9 96 -19 52 -11 124 -22 162 -26 61 -6 68 -9
73 -32 11 -43 -4 -480 -21 -603 -21 -152 -58 -305 -99 -406 -35 -87 -120 -223
-179 -289 l-36 -40 -1 202 c0 190 2 207 25 277 14 41 34 127 45 190 20 118 37
315 27 306 -3 -3 -46 -99 -95 -213 -49 -115 -93 -209 -97 -210 -4 -1 -47 90
-96 203 -48 113 -92 212 -98 220 -7 10 -10 -177 -10 -597 l-1 -611 -35 -22
c-18 -11 -69 -36 -112 -55 l-78 -34 -3 360 -2 359 -33 -16 c-47 -25 -173 -30
-233 -10 -81 27 -144 82 -184 160 -32 62 -35 77 -35 150 1 101 26 163 93 229
89 87 220 119 335 80 l57 -20 0 374 0 375 43 -32 c23 -18 66 -48 96 -67z"/>
</g>
</svg>
